<svg width="320" height="71" viewBox="0 0 320 71" fill="none" xmlns="http://www.w3.org/2000/svg">
<path d="M29.0886 13.8253C34.6885 13.8253 39.5601 10.7775 42.1734 6.25472L33.287 1.11997C30.6982 -0.373325 27.5035 -0.373325 24.9147 1.11997L16.0039 6.26084C18.6172 10.7775 23.4888 13.8191 29.0825 13.8191L29.0886 13.8253Z" fill="black"/>
<path d="M58.2018 30.6248V20.337C58.2018 17.3443 56.6045 14.5841 54.0157 13.0847L45.1171 7.94995C43.8319 10.1715 43.0791 12.7481 43.0791 15.5021C43.0791 23.8499 49.8479 30.6187 58.1957 30.6187L58.2018 30.6248Z" fill="black"/>
<path d="M58.2016 44.2665V33.9786C49.8538 33.9786 43.085 40.7474 43.085 49.0952C43.085 51.8493 43.8316 54.4258 45.1229 56.6474L54.0215 51.5127C56.6103 50.0194 58.2077 47.2531 58.2077 44.2604L58.2016 44.2665Z" fill="black"/>
<path d="M29.1013 50.7844C23.5076 50.7844 18.6299 53.8322 16.0166 58.3488L24.9152 63.4836C27.504 64.9769 30.6987 64.9769 33.2875 63.4836L42.1861 58.3488C39.5728 53.8322 34.6951 50.7844 29.1013 50.7844Z" fill="black"/>
<path d="M15.1227 15.5021C15.1227 12.7481 14.3761 10.1715 13.0847 7.94995L4.18613 13.0847C1.59734 14.578 0 17.3443 0 20.337V30.6248C8.34779 30.6248 15.1166 23.856 15.1166 15.5082L15.1227 15.5021Z" fill="black"/>
<path d="M0.00537109 33.9846V44.2725C0.00537109 47.2652 1.60271 50.0253 4.19151 51.5248L13.0901 56.6595C14.3753 54.4379 15.1281 51.8614 15.1281 49.1073C15.1281 40.7595 8.35928 33.9907 0.0114912 33.9907L0.00537109 33.9846Z" fill="black"/>
<path d="M302.299 56.64C299.227 56.64 296.475 55.8933 294.043 54.4C291.654 52.864 289.755 50.7947 288.347 48.192C286.939 45.5467 286.235 42.5387 286.235 39.168C286.235 35.7973 286.918 32.8107 288.283 30.208C289.691 27.5627 291.59 25.4933 293.979 24C296.368 22.464 299.078 21.696 302.107 21.696C303.771 21.696 305.371 21.9733 306.907 22.528C308.486 23.04 309.894 23.7653 311.131 24.704C312.368 25.6 313.328 26.6027 314.011 27.712C314.736 28.7787 315.099 29.8667 315.099 30.976L313.179 31.104V8.64001H319.771V56H313.179V48H314.459C314.459 49.024 314.118 50.048 313.435 51.072C312.752 52.0533 311.835 52.9707 310.683 53.824C309.574 54.6773 308.272 55.36 306.779 55.872C305.328 56.384 303.835 56.64 302.299 56.64ZM303.195 50.944C305.2 50.944 306.971 50.432 308.507 49.408C310.043 48.384 311.238 46.9973 312.091 45.248C312.987 43.456 313.435 41.4293 313.435 39.168C313.435 36.9067 312.987 34.9014 312.091 33.152C311.238 31.36 310.043 29.952 308.507 28.928C306.971 27.904 305.2 27.392 303.195 27.392C301.19 27.392 299.419 27.904 297.883 28.928C296.347 29.952 295.131 31.36 294.235 33.152C293.382 34.9014 292.955 36.9067 292.955 39.168C292.955 41.4293 293.382 43.456 294.235 45.248C295.131 46.9973 296.347 48.384 297.883 49.408C299.419 50.432 301.19 50.944 303.195 50.944Z" fill="black"/>
<path d="M267.212 56.64C263.927 56.64 260.983 55.8934 258.38 54.4C255.82 52.864 253.793 50.7947 252.3 48.192C250.807 45.5467 250.06 42.5387 250.06 39.168C250.06 35.7974 250.807 32.8107 252.3 30.208C253.793 27.5627 255.82 25.4934 258.38 24C260.983 22.464 263.927 21.696 267.212 21.696C270.455 21.696 273.356 22.464 275.916 24C278.519 25.4934 280.567 27.5627 282.06 30.208C283.553 32.8107 284.3 35.7974 284.3 39.168C284.3 42.5387 283.553 45.5467 282.06 48.192C280.567 50.7947 278.519 52.864 275.916 54.4C273.356 55.8934 270.455 56.64 267.212 56.64ZM267.212 50.624C269.217 50.624 271.009 50.1334 272.588 49.152C274.167 48.128 275.404 46.7627 276.3 45.056C277.196 43.3067 277.623 41.344 277.58 39.168C277.623 36.9494 277.196 34.9867 276.3 33.28C275.404 31.5307 274.167 30.1654 272.588 29.184C271.009 28.2027 269.217 27.712 267.212 27.712C265.207 27.712 263.393 28.224 261.772 29.248C260.193 30.2294 258.956 31.5947 258.06 33.344C257.164 35.0507 256.737 36.992 256.78 39.168C256.737 41.344 257.164 43.3067 258.06 45.056C258.956 46.7627 260.193 48.128 261.772 49.152C263.393 50.1334 265.207 50.624 267.212 50.624Z" fill="black"/>
<path d="M214.933 70.08V22.4H221.589V30.08L220.565 29.504C220.821 28.224 221.546 27.008 222.741 25.856C223.936 24.6613 225.386 23.7013 227.093 22.976C228.842 22.208 230.634 21.824 232.469 21.824C235.498 21.824 238.186 22.5706 240.533 24.064C242.88 25.5573 244.736 27.6053 246.101 30.208C247.466 32.8106 248.149 35.7973 248.149 39.168C248.149 42.496 247.466 45.4826 246.101 48.128C244.778 50.7306 242.944 52.8 240.597 54.336C238.25 55.8293 235.605 56.576 232.661 56.576C230.698 56.576 228.8 56.192 226.965 55.424C225.13 54.6133 223.573 53.5893 222.293 52.352C221.013 51.1146 220.224 49.8346 219.925 48.512L221.589 47.616V70.08H214.933ZM231.573 50.496C233.536 50.496 235.285 50.0053 236.821 49.024C238.357 48.0426 239.573 46.6986 240.469 44.992C241.365 43.2853 241.813 41.344 241.813 39.168C241.813 36.992 241.365 35.072 240.469 33.408C239.616 31.7013 238.421 30.3573 236.885 29.376C235.349 28.3946 233.578 27.904 231.573 27.904C229.568 27.904 227.797 28.3946 226.261 29.376C224.725 30.3146 223.509 31.6373 222.613 33.344C221.717 35.0506 221.269 36.992 221.269 39.168C221.269 41.344 221.717 43.2853 222.613 44.992C223.509 46.6986 224.725 48.0426 226.261 49.024C227.797 50.0053 229.568 50.496 231.573 50.496Z" fill="black"/>
<path d="M196.313 56.64C192.857 56.64 189.785 55.9146 187.097 54.464C184.452 52.9706 182.361 50.944 180.825 48.384C179.332 45.824 178.585 42.88 178.585 39.552C178.585 36.9066 179.012 34.496 179.865 32.32C180.718 30.144 181.892 28.2666 183.385 26.688C184.921 25.0666 186.734 23.8293 188.825 22.976C190.958 22.08 193.262 21.632 195.737 21.632C197.913 21.632 199.94 22.0586 201.817 22.912C203.694 23.7226 205.316 24.8533 206.681 26.304C208.089 27.7546 209.156 29.4826 209.881 31.488C210.649 33.4506 211.012 35.6053 210.969 37.952L210.905 40.768H183.449L181.977 35.52H205.209L204.249 36.608V35.072C204.121 33.664 203.652 32.4053 202.841 31.296C202.03 30.1866 201.006 29.312 199.769 28.672C198.532 28.032 197.188 27.712 195.737 27.712C193.433 27.712 191.492 28.16 189.913 29.056C188.334 29.9093 187.14 31.1893 186.329 32.896C185.518 34.56 185.113 36.6293 185.113 39.104C185.113 41.4506 185.604 43.4986 186.585 45.248C187.566 46.9546 188.953 48.2773 190.745 49.216C192.537 50.1546 194.606 50.624 196.953 50.624C198.617 50.624 200.153 50.3466 201.561 49.792C203.012 49.2373 204.569 48.2346 206.233 46.784L209.561 51.456C208.537 52.48 207.278 53.376 205.785 54.144C204.334 54.912 202.777 55.5306 201.113 56C199.492 56.4266 197.892 56.64 196.313 56.64Z" fill="black"/>
<path d="M157.311 70.72C154.921 70.72 152.532 70.336 150.143 69.568C147.796 68.8427 145.897 67.8827 144.447 66.688L146.879 61.568C147.732 62.208 148.735 62.7627 149.887 63.232C151.039 63.744 152.255 64.128 153.535 64.384C154.815 64.6827 156.073 64.832 157.311 64.832C159.657 64.832 161.62 64.448 163.199 63.68C164.777 62.912 165.972 61.7814 166.783 60.288C167.593 58.7947 167.999 56.9387 167.999 54.72V48.256L168.703 48.704C168.489 50.0267 167.785 51.3067 166.591 52.544C165.439 53.7387 163.988 54.72 162.239 55.488C160.489 56.256 158.697 56.64 156.863 56.64C153.663 56.64 150.804 55.8934 148.287 54.4C145.812 52.864 143.849 50.7947 142.399 48.192C140.948 45.5467 140.223 42.5387 140.223 39.168C140.223 35.7974 140.927 32.8107 142.335 30.208C143.785 27.5627 145.748 25.4934 148.223 24C150.74 22.464 153.556 21.696 156.671 21.696C157.951 21.696 159.188 21.8667 160.383 22.208C161.577 22.5067 162.687 22.9547 163.711 23.552C164.735 24.1067 165.652 24.7254 166.463 25.408C167.273 26.0907 167.935 26.816 168.447 27.584C168.959 28.352 169.279 29.0774 169.407 29.76L167.999 30.272V22.4H174.591V53.952C174.591 56.64 174.185 59.008 173.375 61.056C172.607 63.1467 171.476 64.896 169.983 66.304C168.489 67.7547 166.676 68.8427 164.543 69.568C162.409 70.336 159.999 70.72 157.311 70.72ZM157.567 50.56C159.657 50.56 161.513 50.0694 163.135 49.088C164.756 48.1067 166.015 46.7627 166.911 45.056C167.807 43.3494 168.255 41.3867 168.255 39.168C168.255 36.9494 167.785 34.9867 166.847 33.28C165.951 31.5307 164.692 30.1654 163.071 29.184C161.492 28.2027 159.657 27.712 157.567 27.712C155.519 27.712 153.684 28.224 152.063 29.248C150.484 30.2294 149.225 31.5947 148.287 33.344C147.391 35.0507 146.943 36.992 146.943 39.168C146.943 41.344 147.391 43.3067 148.287 45.056C149.225 46.7627 150.484 48.1067 152.063 49.088C153.684 50.0694 155.519 50.56 157.567 50.56Z" fill="black"/>
<path d="M118.924 56.64C115.852 56.64 113.1 55.8933 110.668 54.4C108.279 52.864 106.38 50.7947 104.972 48.192C103.564 45.5467 102.86 42.5387 102.86 39.168C102.86 35.7973 103.543 32.8107 104.908 30.208C106.316 27.5627 108.215 25.4933 110.604 24C112.993 22.464 115.703 21.696 118.732 21.696C120.396 21.696 121.996 21.9733 123.532 22.528C125.111 23.04 126.519 23.7653 127.756 24.704C128.993 25.6 129.953 26.6027 130.636 27.712C131.361 28.7787 131.724 29.8667 131.724 30.976L129.804 31.104V8.64001H136.396V56H129.804V48H131.084C131.084 49.024 130.743 50.048 130.06 51.072C129.377 52.0533 128.46 52.9707 127.308 53.824C126.199 54.6773 124.897 55.36 123.404 55.872C121.953 56.384 120.46 56.64 118.924 56.64ZM119.82 50.944C121.825 50.944 123.596 50.432 125.132 49.408C126.668 48.384 127.863 46.9973 128.716 45.248C129.612 43.456 130.06 41.4293 130.06 39.168C130.06 36.9067 129.612 34.9014 128.716 33.152C127.863 31.36 126.668 29.952 125.132 28.928C123.596 27.904 121.825 27.392 119.82 27.392C117.815 27.392 116.044 27.904 114.508 28.928C112.972 29.952 111.756 31.36 110.86 33.152C110.007 34.9014 109.58 36.9067 109.58 39.168C109.58 41.4293 110.007 43.456 110.86 45.248C111.756 46.9973 112.972 48.384 114.508 49.408C116.044 50.432 117.815 50.944 119.82 50.944Z" fill="black"/>
<path d="M86.2881 56.64C82.8321 56.64 79.7601 55.9146 77.0721 54.464C74.4267 52.9706 72.3361 50.944 70.8001 48.384C69.3067 45.824 68.5601 42.88 68.5601 39.552C68.5601 36.9066 68.9867 34.496 69.8401 32.32C70.6934 30.144 71.8667 28.2666 73.3601 26.688C74.8961 25.0666 76.7094 23.8293 78.8001 22.976C80.9334 22.08 83.2374 21.632 85.7121 21.632C87.8881 21.632 89.9147 22.0586 91.7921 22.912C93.6694 23.7226 95.2907 24.8533 96.6561 26.304C98.0641 27.7546 99.1307 29.4826 99.8561 31.488C100.624 33.4506 100.987 35.6053 100.944 37.952L100.88 40.768H73.4241L71.9521 35.52H95.1841L94.2241 36.608V35.072C94.0961 33.664 93.6267 32.4053 92.8161 31.296C92.0054 30.1866 90.9814 29.312 89.7441 28.672C88.5067 28.032 87.1627 27.712 85.7121 27.712C83.4081 27.712 81.4667 28.16 79.8881 29.056C78.3094 29.9093 77.1147 31.1893 76.3041 32.896C75.4934 34.56 75.0881 36.6293 75.0881 39.104C75.0881 41.4506 75.5787 43.4986 76.5601 45.248C77.5414 46.9546 78.9281 48.2773 80.7201 49.216C82.5121 50.1546 84.5814 50.624 86.9281 50.624C88.5921 50.624 90.1281 50.3466 91.5361 49.792C92.9867 49.2373 94.5441 48.2346 96.2081 46.784L99.5361 51.456C98.5121 52.48 97.2534 53.376 95.7601 54.144C94.3094 54.912 92.7521 55.5306 91.0881 56C89.4667 56.4266 87.8667 56.64 86.2881 56.64Z" fill="black"/>
</svg>
